<mxfile host="Electron" agent="Mozilla/5.0 (Windows NT 10.0; Win64; x64) AppleWebKit/537.36 (KHTML, like Gecko) draw.io/26.2.2 Chrome/134.0.6998.178 Electron/35.1.2 Safari/537.36" version="26.2.2" pages="2">
  <diagram name="Page-1" id="CNmLcBpDReFI_McdRNrQ">
    <mxGraphModel dx="5471" dy="2503" grid="1" gridSize="8" guides="1" tooltips="1" connect="1" arrows="1" fold="1" page="0" pageScale="1" pageWidth="850" pageHeight="1100" math="0" shadow="0">
      <root>
        <mxCell id="0" />
        <mxCell id="1" parent="0" />
        <mxCell id="oCpHvTD5hd46Y6xHhIZn-2" value="&lt;div&gt;StringProcessorBase&lt;/div&gt;" style="swimlane;fontStyle=0;childLayout=stackLayout;horizontal=1;startSize=30;horizontalStack=0;resizeParent=1;resizeParentMax=0;resizeLast=0;collapsible=1;marginBottom=0;whiteSpace=wrap;html=1;" parent="1" vertex="1">
          <mxGeometry x="-1602" y="624" width="282" height="400" as="geometry" />
        </mxCell>
        <mxCell id="oCpHvTD5hd46Y6xHhIZn-3" value="&lt;div&gt;- _s: string&lt;/div&gt;" style="text;strokeColor=none;fillColor=none;align=left;verticalAlign=middle;spacingLeft=4;spacingRight=4;overflow=hidden;points=[[0,0.5],[1,0.5]];portConstraint=eastwest;rotatable=0;whiteSpace=wrap;html=1;" parent="oCpHvTD5hd46Y6xHhIZn-2" vertex="1">
          <mxGeometry y="30" width="282" height="30" as="geometry" />
        </mxCell>
        <mxCell id="oCpHvTD5hd46Y6xHhIZn-4" value="&lt;div&gt;- _n: int&lt;/div&gt;" style="text;strokeColor=none;fillColor=none;align=left;verticalAlign=middle;spacingLeft=4;spacingRight=4;overflow=hidden;points=[[0,0.5],[1,0.5]];portConstraint=eastwest;rotatable=0;whiteSpace=wrap;html=1;" parent="oCpHvTD5hd46Y6xHhIZn-2" vertex="1">
          <mxGeometry y="60" width="282" height="30" as="geometry" />
        </mxCell>
        <mxCell id="oCpHvTD5hd46Y6xHhIZn-5" value="&lt;div&gt;- _output: string&lt;/div&gt;" style="text;strokeColor=none;fillColor=none;align=left;verticalAlign=middle;spacingLeft=4;spacingRight=4;overflow=hidden;points=[[0,0.5],[1,0.5]];portConstraint=eastwest;rotatable=0;whiteSpace=wrap;html=1;" parent="oCpHvTD5hd46Y6xHhIZn-2" vertex="1">
          <mxGeometry y="90" width="282" height="30" as="geometry" />
        </mxCell>
        <mxCell id="oCpHvTD5hd46Y6xHhIZn-26" value="&lt;div&gt;+ S: string&lt;/div&gt;" style="text;strokeColor=none;fillColor=none;align=left;verticalAlign=middle;spacingLeft=4;spacingRight=4;overflow=hidden;points=[[0,0.5],[1,0.5]];portConstraint=eastwest;rotatable=0;whiteSpace=wrap;html=1;" parent="oCpHvTD5hd46Y6xHhIZn-2" vertex="1">
          <mxGeometry y="120" width="282" height="30" as="geometry" />
        </mxCell>
        <mxCell id="oCpHvTD5hd46Y6xHhIZn-27" value="&lt;div&gt;+ N: int&lt;/div&gt;" style="text;strokeColor=none;fillColor=none;align=left;verticalAlign=middle;spacingLeft=4;spacingRight=4;overflow=hidden;points=[[0,0.5],[1,0.5]];portConstraint=eastwest;rotatable=0;whiteSpace=wrap;html=1;" parent="oCpHvTD5hd46Y6xHhIZn-2" vertex="1">
          <mxGeometry y="150" width="282" height="30" as="geometry" />
        </mxCell>
        <mxCell id="oCpHvTD5hd46Y6xHhIZn-28" value="&lt;div&gt;+ Output: string&lt;/div&gt;" style="text;fillColor=none;align=left;verticalAlign=middle;spacingLeft=4;spacingRight=4;overflow=hidden;points=[[0,0.5],[1,0.5]];portConstraint=eastwest;rotatable=0;whiteSpace=wrap;html=1;perimeterSpacing=1;imageAspect=0;" parent="oCpHvTD5hd46Y6xHhIZn-2" vertex="1">
          <mxGeometry y="180" width="282" height="30" as="geometry" />
        </mxCell>
        <mxCell id="oCpHvTD5hd46Y6xHhIZn-35" value="" style="line;strokeWidth=1;html=1;" parent="oCpHvTD5hd46Y6xHhIZn-2" vertex="1">
          <mxGeometry y="210" width="282" height="10" as="geometry" />
        </mxCell>
        <mxCell id="oCpHvTD5hd46Y6xHhIZn-30" value="&lt;div&gt;+ StringProcessorBase(inputString: string)&lt;/div&gt;" style="text;strokeColor=none;fillColor=none;align=left;verticalAlign=middle;spacingLeft=4;spacingRight=4;overflow=hidden;points=[[0,0.5],[1,0.5]];portConstraint=eastwest;rotatable=0;whiteSpace=wrap;html=1;" parent="oCpHvTD5hd46Y6xHhIZn-2" vertex="1">
          <mxGeometry y="220" width="282" height="30" as="geometry" />
        </mxCell>
        <mxCell id="oCpHvTD5hd46Y6xHhIZn-32" value="&lt;div&gt;+ InputCode(): int[ ]&lt;/div&gt;" style="text;strokeColor=none;fillColor=none;align=left;verticalAlign=middle;spacingLeft=4;spacingRight=4;overflow=hidden;points=[[0,0.5],[1,0.5]];portConstraint=eastwest;rotatable=0;whiteSpace=wrap;html=1;" parent="oCpHvTD5hd46Y6xHhIZn-2" vertex="1">
          <mxGeometry y="250" width="282" height="30" as="geometry" />
        </mxCell>
        <mxCell id="oCpHvTD5hd46Y6xHhIZn-29" value="&lt;div&gt;+ OutputCode(): int[ ]&lt;/div&gt;" style="text;strokeColor=none;fillColor=none;align=left;verticalAlign=middle;spacingLeft=4;spacingRight=4;overflow=hidden;points=[[0,0.5],[1,0.5]];portConstraint=eastwest;rotatable=0;whiteSpace=wrap;html=1;" parent="oCpHvTD5hd46Y6xHhIZn-2" vertex="1">
          <mxGeometry y="280" width="282" height="30" as="geometry" />
        </mxCell>
        <mxCell id="oCpHvTD5hd46Y6xHhIZn-31" value="&lt;div&gt;+ Print(): string&lt;/div&gt;" style="text;strokeColor=none;fillColor=none;align=left;verticalAlign=middle;spacingLeft=4;spacingRight=4;overflow=hidden;points=[[0,0.5],[1,0.5]];portConstraint=eastwest;rotatable=0;whiteSpace=wrap;html=1;" parent="oCpHvTD5hd46Y6xHhIZn-2" vertex="1">
          <mxGeometry y="310" width="282" height="30" as="geometry" />
        </mxCell>
        <mxCell id="oCpHvTD5hd46Y6xHhIZn-34" value="&lt;div&gt;+ Sort(): string&lt;/div&gt;" style="text;strokeColor=none;fillColor=none;align=left;verticalAlign=middle;spacingLeft=4;spacingRight=4;overflow=hidden;points=[[0,0.5],[1,0.5]];portConstraint=eastwest;rotatable=0;whiteSpace=wrap;html=1;" parent="oCpHvTD5hd46Y6xHhIZn-2" vertex="1">
          <mxGeometry y="340" width="282" height="30" as="geometry" />
        </mxCell>
        <mxCell id="oCpHvTD5hd46Y6xHhIZn-33" value="&lt;div&gt;+ Process(): string&amp;nbsp;&lt;/div&gt;" style="text;strokeColor=none;fillColor=none;align=left;verticalAlign=middle;spacingLeft=4;spacingRight=4;overflow=hidden;points=[[0,0.5],[1,0.5]];portConstraint=eastwest;rotatable=0;whiteSpace=wrap;html=1;" parent="oCpHvTD5hd46Y6xHhIZn-2" vertex="1">
          <mxGeometry y="370" width="282" height="30" as="geometry" />
        </mxCell>
        <mxCell id="oCpHvTD5hd46Y6xHhIZn-6" value="&lt;div&gt;CaesarCipherProcessor&lt;/div&gt;" style="swimlane;fontStyle=0;childLayout=stackLayout;horizontal=1;startSize=30;horizontalStack=0;resizeParent=1;resizeParentMax=0;resizeLast=0;collapsible=1;marginBottom=0;whiteSpace=wrap;html=1;" parent="1" vertex="1">
          <mxGeometry x="-1968" y="1104" width="312" height="120" as="geometry" />
        </mxCell>
        <mxCell id="oCpHvTD5hd46Y6xHhIZn-7" value="&lt;div&gt;+ CaesarCipherProcessor(inputString: string, shift: int)&lt;/div&gt;" style="text;strokeColor=none;fillColor=none;align=left;verticalAlign=middle;spacingLeft=4;spacingRight=4;overflow=hidden;points=[[0,0.5],[1,0.5]];portConstraint=eastwest;rotatable=0;whiteSpace=wrap;html=1;" parent="oCpHvTD5hd46Y6xHhIZn-6" vertex="1">
          <mxGeometry y="30" width="312" height="30" as="geometry" />
        </mxCell>
        <mxCell id="oCpHvTD5hd46Y6xHhIZn-8" value="&lt;div&gt;+ Process(): string&lt;/div&gt;" style="text;strokeColor=none;fillColor=none;align=left;verticalAlign=middle;spacingLeft=4;spacingRight=4;overflow=hidden;points=[[0,0.5],[1,0.5]];portConstraint=eastwest;rotatable=0;whiteSpace=wrap;html=1;" parent="oCpHvTD5hd46Y6xHhIZn-6" vertex="1">
          <mxGeometry y="60" width="312" height="30" as="geometry" />
        </mxCell>
        <mxCell id="oCpHvTD5hd46Y6xHhIZn-9" value="&lt;div&gt;+ Print(): string&lt;/div&gt;" style="text;strokeColor=none;fillColor=none;align=left;verticalAlign=middle;spacingLeft=4;spacingRight=4;overflow=hidden;points=[[0,0.5],[1,0.5]];portConstraint=eastwest;rotatable=0;whiteSpace=wrap;html=1;" parent="oCpHvTD5hd46Y6xHhIZn-6" vertex="1">
          <mxGeometry y="90" width="312" height="30" as="geometry" />
        </mxCell>
        <mxCell id="oCpHvTD5hd46Y6xHhIZn-10" value="&lt;div&gt;VowelReplacerProcessor&lt;/div&gt;" style="swimlane;fontStyle=0;childLayout=stackLayout;horizontal=1;startSize=30;horizontalStack=0;resizeParent=1;resizeParentMax=0;resizeLast=0;collapsible=1;marginBottom=0;whiteSpace=wrap;html=1;" parent="1" vertex="1">
          <mxGeometry x="-1616" y="1104" width="312" height="120" as="geometry" />
        </mxCell>
        <mxCell id="oCpHvTD5hd46Y6xHhIZn-11" value="&lt;div&gt;+ N: int {throws}&lt;/div&gt;" style="text;strokeColor=none;fillColor=none;align=left;verticalAlign=middle;spacingLeft=4;spacingRight=4;overflow=hidden;points=[[0,0.5],[1,0.5]];portConstraint=eastwest;rotatable=0;whiteSpace=wrap;html=1;" parent="oCpHvTD5hd46Y6xHhIZn-10" vertex="1">
          <mxGeometry y="30" width="312" height="30" as="geometry" />
        </mxCell>
        <mxCell id="oCpHvTD5hd46Y6xHhIZn-12" value="&lt;div&gt;+ VowelReplacerProcessor(inputString: string)&lt;/div&gt;" style="text;strokeColor=none;fillColor=none;align=left;verticalAlign=middle;spacingLeft=4;spacingRight=4;overflow=hidden;points=[[0,0.5],[1,0.5]];portConstraint=eastwest;rotatable=0;whiteSpace=wrap;html=1;" parent="oCpHvTD5hd46Y6xHhIZn-10" vertex="1">
          <mxGeometry y="60" width="312" height="30" as="geometry" />
        </mxCell>
        <mxCell id="oCpHvTD5hd46Y6xHhIZn-13" value="&lt;div&gt;+ Process(): string&lt;/div&gt;" style="text;strokeColor=none;fillColor=none;align=left;verticalAlign=middle;spacingLeft=4;spacingRight=4;overflow=hidden;points=[[0,0.5],[1,0.5]];portConstraint=eastwest;rotatable=0;whiteSpace=wrap;html=1;" parent="oCpHvTD5hd46Y6xHhIZn-10" vertex="1">
          <mxGeometry y="90" width="312" height="30" as="geometry" />
        </mxCell>
        <mxCell id="oCpHvTD5hd46Y6xHhIZn-14" value="&lt;div&gt;MirrorProcessor&lt;/div&gt;" style="swimlane;fontStyle=0;childLayout=stackLayout;horizontal=1;startSize=30;horizontalStack=0;resizeParent=1;resizeParentMax=0;resizeLast=0;collapsible=1;marginBottom=0;whiteSpace=wrap;html=1;" parent="1" vertex="1">
          <mxGeometry x="-1272" y="1104" width="312" height="120" as="geometry" />
        </mxCell>
        <mxCell id="oCpHvTD5hd46Y6xHhIZn-15" value="+ N: int {throws}" style="text;strokeColor=none;fillColor=none;align=left;verticalAlign=middle;spacingLeft=4;spacingRight=4;overflow=hidden;points=[[0,0.5],[1,0.5]];portConstraint=eastwest;rotatable=0;whiteSpace=wrap;html=1;" parent="oCpHvTD5hd46Y6xHhIZn-14" vertex="1">
          <mxGeometry y="30" width="312" height="30" as="geometry" />
        </mxCell>
        <mxCell id="oCpHvTD5hd46Y6xHhIZn-16" value="&lt;div&gt;+ MirrorProcessor(inputString: string)&lt;/div&gt;" style="text;strokeColor=none;fillColor=none;align=left;verticalAlign=middle;spacingLeft=4;spacingRight=4;overflow=hidden;points=[[0,0.5],[1,0.5]];portConstraint=eastwest;rotatable=0;whiteSpace=wrap;html=1;" parent="oCpHvTD5hd46Y6xHhIZn-14" vertex="1">
          <mxGeometry y="60" width="312" height="30" as="geometry" />
        </mxCell>
        <mxCell id="oCpHvTD5hd46Y6xHhIZn-17" value="+ Process(): string" style="text;strokeColor=none;fillColor=none;align=left;verticalAlign=middle;spacingLeft=4;spacingRight=4;overflow=hidden;points=[[0,0.5],[1,0.5]];portConstraint=eastwest;rotatable=0;whiteSpace=wrap;html=1;" parent="oCpHvTD5hd46Y6xHhIZn-14" vertex="1">
          <mxGeometry y="90" width="312" height="30" as="geometry" />
        </mxCell>
        <mxCell id="oCpHvTD5hd46Y6xHhIZn-18" value="&lt;div&gt;InputValidator&lt;/div&gt;" style="swimlane;fontStyle=0;childLayout=stackLayout;horizontal=1;startSize=30;horizontalStack=0;resizeParent=1;resizeParentMax=0;resizeLast=0;collapsible=1;marginBottom=0;whiteSpace=wrap;html=1;" parent="1" vertex="1">
          <mxGeometry x="-1258" y="786" width="312" height="90" as="geometry" />
        </mxCell>
        <mxCell id="oCpHvTD5hd46Y6xHhIZn-19" value="&lt;div&gt;+ ValidateString(input: string): void {static}&lt;/div&gt;" style="text;strokeColor=none;fillColor=none;align=left;verticalAlign=middle;spacingLeft=4;spacingRight=4;overflow=hidden;points=[[0,0.5],[1,0.5]];portConstraint=eastwest;rotatable=0;whiteSpace=wrap;html=1;" parent="oCpHvTD5hd46Y6xHhIZn-18" vertex="1">
          <mxGeometry y="30" width="312" height="30" as="geometry" />
        </mxCell>
        <mxCell id="oCpHvTD5hd46Y6xHhIZn-20" value="&lt;div&gt;+ ValidateShift(shift: int): void {static}&lt;/div&gt;" style="text;strokeColor=none;fillColor=none;align=left;verticalAlign=middle;spacingLeft=4;spacingRight=4;overflow=hidden;points=[[0,0.5],[1,0.5]];portConstraint=eastwest;rotatable=0;whiteSpace=wrap;html=1;" parent="oCpHvTD5hd46Y6xHhIZn-18" vertex="1">
          <mxGeometry y="60" width="312" height="30" as="geometry" />
        </mxCell>
        <mxCell id="oCpHvTD5hd46Y6xHhIZn-22" value="&lt;div&gt;Program&lt;/div&gt;" style="swimlane;fontStyle=0;childLayout=stackLayout;horizontal=1;startSize=30;horizontalStack=0;resizeParent=1;resizeParentMax=0;resizeLast=0;collapsible=1;marginBottom=0;whiteSpace=wrap;html=1;" parent="1" vertex="1">
          <mxGeometry x="-1298" y="120" width="312" height="390" as="geometry" />
        </mxCell>
        <mxCell id="oCpHvTD5hd46Y6xHhIZn-23" value="&lt;div&gt;+ Main(args: string[ ]): void {static}&lt;/div&gt;" style="text;strokeColor=none;fillColor=none;align=left;verticalAlign=middle;spacingLeft=4;spacingRight=4;overflow=hidden;points=[[0,0.5],[1,0.5]];portConstraint=eastwest;rotatable=0;whiteSpace=wrap;html=1;" parent="oCpHvTD5hd46Y6xHhIZn-22" vertex="1">
          <mxGeometry y="30" width="312" height="30" as="geometry" />
        </mxCell>
        <mxCell id="oCpHvTD5hd46Y6xHhIZn-24" value="&lt;div&gt;+ Login(): bool {static}&lt;/div&gt;" style="text;strokeColor=none;fillColor=none;align=left;verticalAlign=middle;spacingLeft=4;spacingRight=4;overflow=hidden;points=[[0,0.5],[1,0.5]];portConstraint=eastwest;rotatable=0;whiteSpace=wrap;html=1;" parent="oCpHvTD5hd46Y6xHhIZn-22" vertex="1">
          <mxGeometry y="60" width="312" height="30" as="geometry" />
        </mxCell>
        <mxCell id="oCpHvTD5hd46Y6xHhIZn-25" value="&lt;div&gt;+ ProcessDefaultInput(): void {static}&lt;/div&gt;" style="text;strokeColor=none;fillColor=none;align=left;verticalAlign=middle;spacingLeft=4;spacingRight=4;overflow=hidden;points=[[0,0.5],[1,0.5]];portConstraint=eastwest;rotatable=0;whiteSpace=wrap;html=1;" parent="oCpHvTD5hd46Y6xHhIZn-22" vertex="1">
          <mxGeometry y="90" width="312" height="30" as="geometry" />
        </mxCell>
        <mxCell id="oCpHvTD5hd46Y6xHhIZn-38" value="&lt;div&gt;+ CaesarCipherEncoding(): void {static}&lt;/div&gt;" style="text;strokeColor=none;fillColor=none;align=left;verticalAlign=middle;spacingLeft=4;spacingRight=4;overflow=hidden;points=[[0,0.5],[1,0.5]];portConstraint=eastwest;rotatable=0;whiteSpace=wrap;html=1;" parent="oCpHvTD5hd46Y6xHhIZn-22" vertex="1">
          <mxGeometry y="120" width="312" height="30" as="geometry" />
        </mxCell>
        <mxCell id="oCpHvTD5hd46Y6xHhIZn-41" value="&lt;div&gt;+ VowelConsonantReplacement(): void {static}&lt;/div&gt;" style="text;strokeColor=none;fillColor=none;align=left;verticalAlign=middle;spacingLeft=4;spacingRight=4;overflow=hidden;points=[[0,0.5],[1,0.5]];portConstraint=eastwest;rotatable=0;whiteSpace=wrap;html=1;" parent="oCpHvTD5hd46Y6xHhIZn-22" vertex="1">
          <mxGeometry y="150" width="312" height="30" as="geometry" />
        </mxCell>
        <mxCell id="oCpHvTD5hd46Y6xHhIZn-39" value="&lt;div&gt;+ ProcessMirrorString(): void {static}&lt;/div&gt;" style="text;strokeColor=none;fillColor=none;align=left;verticalAlign=middle;spacingLeft=4;spacingRight=4;overflow=hidden;points=[[0,0.5],[1,0.5]];portConstraint=eastwest;rotatable=0;whiteSpace=wrap;html=1;" parent="oCpHvTD5hd46Y6xHhIZn-22" vertex="1">
          <mxGeometry y="180" width="312" height="30" as="geometry" />
        </mxCell>
        <mxCell id="oCpHvTD5hd46Y6xHhIZn-44" value="&lt;div&gt;+ SaveToDatabase(...): void {static}&lt;/div&gt;" style="text;strokeColor=none;fillColor=none;align=left;verticalAlign=middle;spacingLeft=4;spacingRight=4;overflow=hidden;points=[[0,0.5],[1,0.5]];portConstraint=eastwest;rotatable=0;whiteSpace=wrap;html=1;" parent="oCpHvTD5hd46Y6xHhIZn-22" vertex="1">
          <mxGeometry y="210" width="312" height="30" as="geometry" />
        </mxCell>
        <mxCell id="oCpHvTD5hd46Y6xHhIZn-36" value="&lt;div&gt;+ Display(): void {static}&lt;/div&gt;" style="text;strokeColor=none;fillColor=none;align=left;verticalAlign=middle;spacingLeft=4;spacingRight=4;overflow=hidden;points=[[0,0.5],[1,0.5]];portConstraint=eastwest;rotatable=0;whiteSpace=wrap;html=1;" parent="oCpHvTD5hd46Y6xHhIZn-22" vertex="1">
          <mxGeometry y="240" width="312" height="30" as="geometry" />
        </mxCell>
        <mxCell id="oCpHvTD5hd46Y6xHhIZn-45" value="&lt;div&gt;+ Find(): void {static}&amp;nbsp;&lt;/div&gt;" style="text;strokeColor=none;fillColor=none;align=left;verticalAlign=middle;spacingLeft=4;spacingRight=4;overflow=hidden;points=[[0,0.5],[1,0.5]];portConstraint=eastwest;rotatable=0;whiteSpace=wrap;html=1;" parent="oCpHvTD5hd46Y6xHhIZn-22" vertex="1">
          <mxGeometry y="270" width="312" height="30" as="geometry" />
        </mxCell>
        <mxCell id="oCpHvTD5hd46Y6xHhIZn-46" value="&lt;div&gt;+ Remove(): void {static}&lt;/div&gt;" style="text;strokeColor=none;fillColor=none;align=left;verticalAlign=middle;spacingLeft=4;spacingRight=4;overflow=hidden;points=[[0,0.5],[1,0.5]];portConstraint=eastwest;rotatable=0;whiteSpace=wrap;html=1;" parent="oCpHvTD5hd46Y6xHhIZn-22" vertex="1">
          <mxGeometry y="300" width="312" height="30" as="geometry" />
        </mxCell>
        <mxCell id="oCpHvTD5hd46Y6xHhIZn-40" value="&lt;div&gt;+ Edit(): void {static}&lt;/div&gt;" style="text;strokeColor=none;fillColor=none;align=left;verticalAlign=middle;spacingLeft=4;spacingRight=4;overflow=hidden;points=[[0,0.5],[1,0.5]];portConstraint=eastwest;rotatable=0;whiteSpace=wrap;html=1;" parent="oCpHvTD5hd46Y6xHhIZn-22" vertex="1">
          <mxGeometry y="330" width="312" height="30" as="geometry" />
        </mxCell>
        <mxCell id="oCpHvTD5hd46Y6xHhIZn-42" value="&lt;div&gt;+ Clear(): void {static}&lt;/div&gt;" style="text;strokeColor=none;fillColor=none;align=left;verticalAlign=middle;spacingLeft=4;spacingRight=4;overflow=hidden;points=[[0,0.5],[1,0.5]];portConstraint=eastwest;rotatable=0;whiteSpace=wrap;html=1;" parent="oCpHvTD5hd46Y6xHhIZn-22" vertex="1">
          <mxGeometry y="360" width="312" height="30" as="geometry" />
        </mxCell>
        <mxCell id="oCpHvTD5hd46Y6xHhIZn-47" value="" style="endArrow=classic;html=1;rounded=0;exitX=0.632;exitY=-0.004;exitDx=0;exitDy=0;exitPerimeter=0;entryX=0.204;entryY=1.156;entryDx=0;entryDy=0;entryPerimeter=0;" parent="1" source="oCpHvTD5hd46Y6xHhIZn-2" target="oCpHvTD5hd46Y6xHhIZn-42" edge="1">
          <mxGeometry width="50" height="50" relative="1" as="geometry">
            <mxPoint x="-1282" y="770" as="sourcePoint" />
            <mxPoint x="-1232" y="720" as="targetPoint" />
          </mxGeometry>
        </mxCell>
        <mxCell id="oCpHvTD5hd46Y6xHhIZn-48" value="" style="endArrow=classic;html=1;rounded=0;exitX=0.466;exitY=0.017;exitDx=0;exitDy=0;exitPerimeter=0;" parent="1" source="oCpHvTD5hd46Y6xHhIZn-18" target="oCpHvTD5hd46Y6xHhIZn-42" edge="1">
          <mxGeometry width="50" height="50" relative="1" as="geometry">
            <mxPoint x="-1218" y="715" as="sourcePoint" />
            <mxPoint x="-1028" y="608" as="targetPoint" />
          </mxGeometry>
        </mxCell>
        <mxCell id="oCpHvTD5hd46Y6xHhIZn-49" value="" style="endArrow=block;html=1;rounded=0;endFill=0;exitX=0.5;exitY=0;exitDx=0;exitDy=0;entryX=0.079;entryY=0.99;entryDx=0;entryDy=0;entryPerimeter=0;" parent="1" source="oCpHvTD5hd46Y6xHhIZn-6" target="oCpHvTD5hd46Y6xHhIZn-33" edge="1">
          <mxGeometry width="50" height="50" relative="1" as="geometry">
            <mxPoint x="-1698" y="624" as="sourcePoint" />
            <mxPoint x="-1658" y="464" as="targetPoint" />
            <Array as="points">
              <mxPoint x="-1594" y="1072" />
            </Array>
          </mxGeometry>
        </mxCell>
        <mxCell id="oCpHvTD5hd46Y6xHhIZn-50" value="" style="endArrow=block;html=1;rounded=0;endFill=0;exitX=0.522;exitY=-0.015;exitDx=0;exitDy=0;entryX=-0.002;entryY=0.697;entryDx=0;entryDy=0;entryPerimeter=0;exitPerimeter=0;" parent="1" source="oCpHvTD5hd46Y6xHhIZn-10" edge="1">
          <mxGeometry width="50" height="50" relative="1" as="geometry">
            <mxPoint x="-1435.0159999999996" y="1088" as="sourcePoint" />
            <mxPoint x="-1458" y="1024" as="targetPoint" />
          </mxGeometry>
        </mxCell>
        <mxCell id="oCpHvTD5hd46Y6xHhIZn-51" value="" style="endArrow=block;html=1;rounded=0;endFill=0;exitX=0.473;exitY=0.002;exitDx=0;exitDy=0;entryX=0.828;entryY=1.007;entryDx=0;entryDy=0;entryPerimeter=0;exitPerimeter=0;" parent="1" source="oCpHvTD5hd46Y6xHhIZn-14" target="oCpHvTD5hd46Y6xHhIZn-33" edge="1">
          <mxGeometry width="50" height="50" relative="1" as="geometry">
            <mxPoint x="-1804" y="1112" as="sourcePoint" />
            <mxPoint x="-1572" y="1032" as="targetPoint" />
            <Array as="points">
              <mxPoint x="-1346" y="1072" />
            </Array>
          </mxGeometry>
        </mxCell>
        <mxCell id="oCpHvTD5hd46Y6xHhIZn-52" value="User" style="text;html=1;align=center;verticalAlign=middle;whiteSpace=wrap;rounded=0;rotation=-30;" parent="1" vertex="1">
          <mxGeometry x="-1378" y="547" width="60" height="30" as="geometry" />
        </mxCell>
        <mxCell id="oCpHvTD5hd46Y6xHhIZn-53" value="User" style="text;html=1;align=center;verticalAlign=middle;whiteSpace=wrap;rounded=0;rotation=85;" parent="1" vertex="1">
          <mxGeometry x="-1142" y="616" width="60" height="30" as="geometry" />
        </mxCell>
        <mxCell id="LUpzrj-bU5JV62jirI_c-5" value="&lt;div&gt;Login&lt;/div&gt;" style="ellipse;whiteSpace=wrap;html=1;fillColor=none;" parent="1" vertex="1">
          <mxGeometry x="-128" y="570" width="120" height="50" as="geometry" />
        </mxCell>
        <mxCell id="LUpzrj-bU5JV62jirI_c-7" value="&lt;div&gt;Find String&lt;/div&gt;" style="ellipse;whiteSpace=wrap;html=1;fillColor=none;" parent="1" vertex="1">
          <mxGeometry x="168" y="688" width="120" height="50" as="geometry" />
        </mxCell>
        <mxCell id="LUpzrj-bU5JV62jirI_c-8" value="&lt;div&gt;Display Strings&lt;/div&gt;" style="ellipse;whiteSpace=wrap;html=1;fillColor=none;" parent="1" vertex="1">
          <mxGeometry x="168" y="620" width="120" height="50" as="geometry" />
        </mxCell>
        <mxCell id="LUpzrj-bU5JV62jirI_c-9" value="&lt;div&gt;Apply Caesar Cipher&lt;/div&gt;" style="ellipse;whiteSpace=wrap;html=1;fillColor=none;" parent="1" vertex="1">
          <mxGeometry x="-440" y="638" width="168" height="50" as="geometry" />
        </mxCell>
        <mxCell id="LUpzrj-bU5JV62jirI_c-10" value="&lt;div&gt;Replace Vowels&lt;/div&gt;" style="ellipse;whiteSpace=wrap;html=1;fillColor=none;" parent="1" vertex="1">
          <mxGeometry x="-416" y="792" width="120" height="50" as="geometry" />
        </mxCell>
        <mxCell id="LUpzrj-bU5JV62jirI_c-11" value="&lt;div&gt;Process Default Input&lt;/div&gt;" style="ellipse;whiteSpace=wrap;html=1;fillColor=none;" parent="1" vertex="1">
          <mxGeometry x="-436" y="880" width="160" height="50" as="geometry" />
        </mxCell>
        <mxCell id="LUpzrj-bU5JV62jirI_c-12" value="&lt;div&gt;Mirror String&lt;/div&gt;" style="ellipse;whiteSpace=wrap;html=1;fillColor=none;" parent="1" vertex="1">
          <mxGeometry x="-416" y="718" width="120" height="50" as="geometry" />
        </mxCell>
        <mxCell id="LUpzrj-bU5JV62jirI_c-15" value="&lt;div&gt;Clear All&lt;/div&gt;" style="ellipse;whiteSpace=wrap;html=1;fillColor=none;" parent="1" vertex="1">
          <mxGeometry x="160" y="920" width="120" height="50" as="geometry" />
        </mxCell>
        <mxCell id="LUpzrj-bU5JV62jirI_c-16" value="&lt;div&gt;Edit String&lt;/div&gt;" style="ellipse;whiteSpace=wrap;html=1;fillColor=none;" parent="1" vertex="1">
          <mxGeometry x="176" y="850" width="120" height="50" as="geometry" />
        </mxCell>
        <mxCell id="LUpzrj-bU5JV62jirI_c-17" value="&lt;div&gt;Remove String&lt;/div&gt;" style="ellipse;whiteSpace=wrap;html=1;fillColor=none;" parent="1" vertex="1">
          <mxGeometry x="184" y="768" width="120" height="50" as="geometry" />
        </mxCell>
        <mxCell id="LUpzrj-bU5JV62jirI_c-21" value="" style="endArrow=classic;html=1;rounded=0;entryX=0.5;entryY=1;entryDx=0;entryDy=0;" parent="1" source="LUpzrj-bU5JV62jirI_c-18" target="LUpzrj-bU5JV62jirI_c-5" edge="1">
          <mxGeometry width="50" height="50" relative="1" as="geometry">
            <mxPoint x="-560" y="842" as="sourcePoint" />
            <mxPoint x="-510" y="792" as="targetPoint" />
          </mxGeometry>
        </mxCell>
        <mxCell id="LUpzrj-bU5JV62jirI_c-22" value="" style="endArrow=classic;html=1;rounded=0;entryX=0.77;entryY=0.057;entryDx=0;entryDy=0;entryPerimeter=0;" parent="1" source="LUpzrj-bU5JV62jirI_c-18" target="LUpzrj-bU5JV62jirI_c-11" edge="1">
          <mxGeometry width="50" height="50" relative="1" as="geometry">
            <mxPoint x="-86" y="735" as="sourcePoint" />
            <mxPoint x="-444" y="888" as="targetPoint" />
          </mxGeometry>
        </mxCell>
        <mxCell id="LUpzrj-bU5JV62jirI_c-23" value="" style="endArrow=classic;html=1;rounded=0;entryX=1;entryY=0.5;entryDx=0;entryDy=0;" parent="1" source="LUpzrj-bU5JV62jirI_c-18" target="LUpzrj-bU5JV62jirI_c-9" edge="1">
          <mxGeometry width="50" height="50" relative="1" as="geometry">
            <mxPoint x="-86" y="745" as="sourcePoint" />
            <mxPoint x="-264" y="888" as="targetPoint" />
          </mxGeometry>
        </mxCell>
        <mxCell id="LUpzrj-bU5JV62jirI_c-24" value="" style="endArrow=classic;html=1;rounded=0;entryX=0.987;entryY=0.317;entryDx=0;entryDy=0;entryPerimeter=0;" parent="1" source="LUpzrj-bU5JV62jirI_c-18" target="LUpzrj-bU5JV62jirI_c-10" edge="1">
          <mxGeometry width="50" height="50" relative="1" as="geometry">
            <mxPoint x="-78" y="753" as="sourcePoint" />
            <mxPoint x="-256" y="896" as="targetPoint" />
          </mxGeometry>
        </mxCell>
        <mxCell id="LUpzrj-bU5JV62jirI_c-25" value="" style="endArrow=classic;html=1;rounded=0;entryX=1;entryY=0.5;entryDx=0;entryDy=0;" parent="1" source="LUpzrj-bU5JV62jirI_c-18" target="LUpzrj-bU5JV62jirI_c-12" edge="1">
          <mxGeometry width="50" height="50" relative="1" as="geometry">
            <mxPoint x="-34" y="747" as="sourcePoint" />
            <mxPoint x="124" y="888" as="targetPoint" />
          </mxGeometry>
        </mxCell>
        <mxCell id="LUpzrj-bU5JV62jirI_c-26" value="" style="endArrow=classic;html=1;rounded=0;entryX=0;entryY=0.5;entryDx=0;entryDy=0;" parent="1" source="LUpzrj-bU5JV62jirI_c-18" target="LUpzrj-bU5JV62jirI_c-8" edge="1">
          <mxGeometry width="50" height="50" relative="1" as="geometry">
            <mxPoint x="-86" y="742" as="sourcePoint" />
            <mxPoint x="-296" y="888" as="targetPoint" />
          </mxGeometry>
        </mxCell>
        <mxCell id="LUpzrj-bU5JV62jirI_c-27" value="" style="endArrow=classic;html=1;rounded=0;entryX=0;entryY=0.5;entryDx=0;entryDy=0;" parent="1" source="LUpzrj-bU5JV62jirI_c-18" target="LUpzrj-bU5JV62jirI_c-17" edge="1">
          <mxGeometry width="50" height="50" relative="1" as="geometry">
            <mxPoint x="-86" y="749" as="sourcePoint" />
            <mxPoint x="-232" y="888" as="targetPoint" />
          </mxGeometry>
        </mxCell>
        <mxCell id="LUpzrj-bU5JV62jirI_c-29" value="" style="endArrow=classic;html=1;rounded=0;entryX=0;entryY=0;entryDx=0;entryDy=0;" parent="1" source="LUpzrj-bU5JV62jirI_c-18" target="LUpzrj-bU5JV62jirI_c-16" edge="1">
          <mxGeometry width="50" height="50" relative="1" as="geometry">
            <mxPoint x="-80" y="776" as="sourcePoint" />
            <mxPoint x="-153" y="970" as="targetPoint" />
          </mxGeometry>
        </mxCell>
        <mxCell id="LUpzrj-bU5JV62jirI_c-30" value="" style="endArrow=classic;html=1;rounded=0;entryX=0;entryY=0.5;entryDx=0;entryDy=0;" parent="1" source="LUpzrj-bU5JV62jirI_c-18" target="LUpzrj-bU5JV62jirI_c-7" edge="1">
          <mxGeometry width="50" height="50" relative="1" as="geometry">
            <mxPoint x="-34" y="759" as="sourcePoint" />
            <mxPoint x="123" y="972" as="targetPoint" />
          </mxGeometry>
        </mxCell>
        <mxCell id="LUpzrj-bU5JV62jirI_c-31" value="" style="endArrow=classic;html=1;rounded=0;entryX=0;entryY=0;entryDx=0;entryDy=0;" parent="1" source="LUpzrj-bU5JV62jirI_c-18" target="LUpzrj-bU5JV62jirI_c-15" edge="1">
          <mxGeometry width="50" height="50" relative="1" as="geometry">
            <mxPoint x="-50" y="776" as="sourcePoint" />
            <mxPoint x="-28" y="888" as="targetPoint" />
          </mxGeometry>
        </mxCell>
        <mxCell id="LUpzrj-bU5JV62jirI_c-33" value="&lt;div&gt;Save to Database&lt;/div&gt;" style="ellipse;whiteSpace=wrap;html=1;fillColor=none;" parent="1" vertex="1">
          <mxGeometry x="-688" y="830" width="120" height="50" as="geometry" />
        </mxCell>
        <mxCell id="LUpzrj-bU5JV62jirI_c-34" value="&lt;div&gt;Validate Shift&lt;/div&gt;" style="ellipse;whiteSpace=wrap;html=1;fillColor=none;" parent="1" vertex="1">
          <mxGeometry x="-632" y="588" width="120" height="50" as="geometry" />
        </mxCell>
        <mxCell id="LUpzrj-bU5JV62jirI_c-35" value="&lt;div&gt;Validate Input&lt;/div&gt;" style="ellipse;whiteSpace=wrap;html=1;fillColor=none;" parent="1" vertex="1">
          <mxGeometry x="-632" y="718" width="120" height="50" as="geometry" />
        </mxCell>
        <mxCell id="LUpzrj-bU5JV62jirI_c-38" value="" style="group" parent="1" vertex="1" connectable="0">
          <mxGeometry x="-94" y="664" width="52" height="136" as="geometry" />
        </mxCell>
        <mxCell id="LUpzrj-bU5JV62jirI_c-18" value="" style="shape=umlActor;verticalLabelPosition=bottom;verticalAlign=top;html=1;outlineConnect=0;" parent="LUpzrj-bU5JV62jirI_c-38" vertex="1">
          <mxGeometry width="52" height="104" as="geometry" />
        </mxCell>
        <mxCell id="LUpzrj-bU5JV62jirI_c-37" value="User" style="text;html=1;align=center;verticalAlign=middle;resizable=0;points=[];autosize=1;strokeColor=none;fillColor=none;" parent="LUpzrj-bU5JV62jirI_c-38" vertex="1">
          <mxGeometry x="2" y="104" width="48" height="32" as="geometry" />
        </mxCell>
        <mxCell id="LUpzrj-bU5JV62jirI_c-39" value="" style="endArrow=classic;html=1;rounded=0;entryX=1;entryY=0.5;entryDx=0;entryDy=0;" parent="1" source="LUpzrj-bU5JV62jirI_c-32" target="LUpzrj-bU5JV62jirI_c-8" edge="1">
          <mxGeometry width="50" height="50" relative="1" as="geometry">
            <mxPoint x="-34" y="716" as="sourcePoint" />
            <mxPoint x="176" y="653" as="targetPoint" />
          </mxGeometry>
        </mxCell>
        <mxCell id="LUpzrj-bU5JV62jirI_c-40" value="" style="endArrow=classic;html=1;rounded=0;entryX=1;entryY=0.5;entryDx=0;entryDy=0;" parent="1" source="LUpzrj-bU5JV62jirI_c-32" target="LUpzrj-bU5JV62jirI_c-7" edge="1">
          <mxGeometry width="50" height="50" relative="1" as="geometry">
            <mxPoint x="-34" y="716" as="sourcePoint" />
            <mxPoint x="176" y="653" as="targetPoint" />
          </mxGeometry>
        </mxCell>
        <mxCell id="LUpzrj-bU5JV62jirI_c-41" value="" style="endArrow=classic;html=1;rounded=0;entryX=1;entryY=0.5;entryDx=0;entryDy=0;" parent="1" source="LUpzrj-bU5JV62jirI_c-32" target="LUpzrj-bU5JV62jirI_c-17" edge="1">
          <mxGeometry width="50" height="50" relative="1" as="geometry">
            <mxPoint x="-26" y="724" as="sourcePoint" />
            <mxPoint x="184" y="661" as="targetPoint" />
          </mxGeometry>
        </mxCell>
        <mxCell id="LUpzrj-bU5JV62jirI_c-42" value="" style="endArrow=classic;html=1;rounded=0;entryX=1;entryY=0.5;entryDx=0;entryDy=0;" parent="1" source="LUpzrj-bU5JV62jirI_c-32" target="LUpzrj-bU5JV62jirI_c-15" edge="1">
          <mxGeometry width="50" height="50" relative="1" as="geometry">
            <mxPoint x="576" y="745" as="sourcePoint" />
            <mxPoint x="312" y="801" as="targetPoint" />
          </mxGeometry>
        </mxCell>
        <mxCell id="LUpzrj-bU5JV62jirI_c-43" value="" style="endArrow=classic;html=1;rounded=0;entryX=1;entryY=0.5;entryDx=0;entryDy=0;" parent="1" source="LUpzrj-bU5JV62jirI_c-32" target="LUpzrj-bU5JV62jirI_c-16" edge="1">
          <mxGeometry width="50" height="50" relative="1" as="geometry">
            <mxPoint x="576" y="745" as="sourcePoint" />
            <mxPoint x="312" y="801" as="targetPoint" />
          </mxGeometry>
        </mxCell>
        <mxCell id="LUpzrj-bU5JV62jirI_c-44" value="" style="endArrow=classic;dashed=1;html=1;rounded=0;endFill=1;entryX=0.5;entryY=0;entryDx=0;entryDy=0;exitX=0;exitY=0.5;exitDx=0;exitDy=0;" parent="1" source="LUpzrj-bU5JV62jirI_c-9" target="LUpzrj-bU5JV62jirI_c-35" edge="1">
          <mxGeometry width="50" height="50" relative="1" as="geometry">
            <mxPoint x="-696" y="802" as="sourcePoint" />
            <mxPoint x="-646" y="752" as="targetPoint" />
            <Array as="points">
              <mxPoint x="-512" y="672" />
              <mxPoint x="-572" y="680" />
            </Array>
          </mxGeometry>
        </mxCell>
        <mxCell id="LUpzrj-bU5JV62jirI_c-45" value="" style="endArrow=classic;dashed=1;html=1;rounded=0;endFill=1;entryX=1;entryY=0.5;entryDx=0;entryDy=0;exitX=0;exitY=0.5;exitDx=0;exitDy=0;" parent="1" source="LUpzrj-bU5JV62jirI_c-9" target="LUpzrj-bU5JV62jirI_c-34" edge="1">
          <mxGeometry width="50" height="50" relative="1" as="geometry">
            <mxPoint x="-440" y="751" as="sourcePoint" />
            <mxPoint x="-544" y="617" as="targetPoint" />
          </mxGeometry>
        </mxCell>
        <mxCell id="LUpzrj-bU5JV62jirI_c-47" value="" style="endArrow=classic;dashed=1;html=1;rounded=0;endFill=1;entryX=1;entryY=0.5;entryDx=0;entryDy=0;exitX=0;exitY=0.5;exitDx=0;exitDy=0;" parent="1" source="LUpzrj-bU5JV62jirI_c-10" target="LUpzrj-bU5JV62jirI_c-35" edge="1">
          <mxGeometry width="50" height="50" relative="1" as="geometry">
            <mxPoint x="-440" y="751" as="sourcePoint" />
            <mxPoint x="-544" y="751" as="targetPoint" />
          </mxGeometry>
        </mxCell>
        <mxCell id="LUpzrj-bU5JV62jirI_c-48" value="" style="endArrow=classic;dashed=1;html=1;rounded=0;endFill=1;entryX=1;entryY=0;entryDx=0;entryDy=0;exitX=0;exitY=0.5;exitDx=0;exitDy=0;" parent="1" source="LUpzrj-bU5JV62jirI_c-12" target="LUpzrj-bU5JV62jirI_c-35" edge="1">
          <mxGeometry width="50" height="50" relative="1" as="geometry">
            <mxPoint x="-528" y="880" as="sourcePoint" />
            <mxPoint x="-544" y="751" as="targetPoint" />
            <Array as="points">
              <mxPoint x="-480" y="720" />
            </Array>
          </mxGeometry>
        </mxCell>
        <mxCell id="LUpzrj-bU5JV62jirI_c-49" value="" style="endArrow=classic;dashed=1;html=1;rounded=0;endFill=1;entryX=1;entryY=1;entryDx=0;entryDy=0;exitX=0;exitY=0;exitDx=0;exitDy=0;" parent="1" source="LUpzrj-bU5JV62jirI_c-11" target="LUpzrj-bU5JV62jirI_c-35" edge="1">
          <mxGeometry width="50" height="50" relative="1" as="geometry">
            <mxPoint x="-408" y="833" as="sourcePoint" />
            <mxPoint x="-544" y="751" as="targetPoint" />
          </mxGeometry>
        </mxCell>
        <mxCell id="LUpzrj-bU5JV62jirI_c-50" value="" style="endArrow=classic;dashed=1;html=1;rounded=0;endFill=1;entryX=0;entryY=0;entryDx=0;entryDy=0;exitX=0;exitY=0;exitDx=0;exitDy=0;" parent="1" source="LUpzrj-bU5JV62jirI_c-9" target="LUpzrj-bU5JV62jirI_c-33" edge="1">
          <mxGeometry width="50" height="50" relative="1" as="geometry">
            <mxPoint x="-432" y="671" as="sourcePoint" />
            <mxPoint x="-528" y="647" as="targetPoint" />
            <Array as="points">
              <mxPoint x="-512" y="552" />
              <mxPoint x="-736" y="552" />
              <mxPoint x="-760" y="752" />
            </Array>
          </mxGeometry>
        </mxCell>
        <mxCell id="LUpzrj-bU5JV62jirI_c-51" value="" style="endArrow=classic;dashed=1;html=1;rounded=0;endFill=1;exitX=0;exitY=1;exitDx=0;exitDy=0;" parent="1" source="LUpzrj-bU5JV62jirI_c-12" target="LUpzrj-bU5JV62jirI_c-33" edge="1">
          <mxGeometry width="50" height="50" relative="1" as="geometry">
            <mxPoint x="-408" y="833" as="sourcePoint" />
            <mxPoint x="-544" y="751" as="targetPoint" />
          </mxGeometry>
        </mxCell>
        <mxCell id="LUpzrj-bU5JV62jirI_c-52" value="" style="endArrow=classic;dashed=1;html=1;rounded=0;endFill=1;exitX=0;exitY=1;exitDx=0;exitDy=0;entryX=1;entryY=0.5;entryDx=0;entryDy=0;" parent="1" source="LUpzrj-bU5JV62jirI_c-10" target="LUpzrj-bU5JV62jirI_c-33" edge="1">
          <mxGeometry width="50" height="50" relative="1" as="geometry">
            <mxPoint x="-391" y="769" as="sourcePoint" />
            <mxPoint x="-547" y="837" as="targetPoint" />
          </mxGeometry>
        </mxCell>
        <mxCell id="LUpzrj-bU5JV62jirI_c-53" value="" style="endArrow=classic;dashed=1;html=1;rounded=0;endFill=1;exitX=0;exitY=1;exitDx=0;exitDy=0;entryX=1;entryY=1;entryDx=0;entryDy=0;" parent="1" source="LUpzrj-bU5JV62jirI_c-11" target="LUpzrj-bU5JV62jirI_c-33" edge="1">
          <mxGeometry width="50" height="50" relative="1" as="geometry">
            <mxPoint x="-391" y="851" as="sourcePoint" />
            <mxPoint x="-528" y="855" as="targetPoint" />
            <Array as="points">
              <mxPoint x="-496" y="912" />
            </Array>
          </mxGeometry>
        </mxCell>
        <mxCell id="LUpzrj-bU5JV62jirI_c-56" value="" style="group" parent="1" vertex="1" connectable="0">
          <mxGeometry x="558" y="680" width="72" height="138" as="geometry" />
        </mxCell>
        <mxCell id="LUpzrj-bU5JV62jirI_c-32" value="" style="shape=umlActor;verticalLabelPosition=bottom;verticalAlign=top;html=1;outlineConnect=0;" parent="LUpzrj-bU5JV62jirI_c-56" vertex="1">
          <mxGeometry x="10" width="52" height="104" as="geometry" />
        </mxCell>
        <mxCell id="LUpzrj-bU5JV62jirI_c-55" value="Database" style="text;html=1;align=center;verticalAlign=middle;resizable=0;points=[];autosize=1;strokeColor=none;fillColor=none;" parent="LUpzrj-bU5JV62jirI_c-56" vertex="1">
          <mxGeometry y="106" width="72" height="32" as="geometry" />
        </mxCell>
      </root>
    </mxGraphModel>
  </diagram>
  <diagram id="LrxWwF03v6YTV-zNv0eW" name="Page-2">
    <mxGraphModel grid="1" page="1" gridSize="10" guides="1" tooltips="1" connect="1" arrows="1" fold="1" pageScale="1" pageWidth="850" pageHeight="1100" math="0" shadow="0">
      <root>
        <mxCell id="0" />
        <mxCell id="1" parent="0" />
      </root>
    </mxGraphModel>
  </diagram>
</mxfile>
